<svg width="197" height="72" viewBox="0 0 197 72" fill="none" xmlns="http://www.w3.org/2000/svg">
<path d="M11.95 46.45V52.7C11.95 54.4333 11.4833 55.75 10.55 56.65C9.65 57.55 8.45 58 6.95 58H6.9C5.26667 58 3.96667 57.55 3 56.65C2.06667 55.75 1.6 54.4333 1.6 52.7V45.65C1.6 42.1167 2.13333 39.4333 3.2 37.6C4.26667 35.7667 5.61667 34.45 7.25 33.65L7 32.7H6.15C4.61667 32.7 3.4 32.2167 2.5 31.25C1.63333 30.25 1.18333 28.9 1.15 27.2C1.11667 25.5333 1.55 24.1833 2.45 23.15C3.38333 22.1167 4.61667 21.6 6.15 21.6H19.3C22.6667 21.6 25.4 22.6167 27.5 24.65C29.6333 26.65 30.7 29.8167 30.7 34.15C30.7 37.2833 30.15 39.75 29.05 41.55C27.95 43.35 26.5 44.6167 24.7 45.35C22.9 46.0833 20.95 46.45 18.85 46.45H11.95ZM11.3 36.8C11.3 37.5333 11.4333 38.0167 11.7 38.25C12 38.4833 12.5167 38.6 13.25 38.6H17.9C19.3 38.6 20.3167 38.2833 20.95 37.65C21.5833 36.9833 21.9 36.05 21.9 34.85C21.9 33.65 21.5833 32.7333 20.95 32.1C20.3167 31.4667 19.3 31.15 17.9 31.15H13.25C12.5167 31.15 12 31.25 11.7 31.45C11.4333 31.65 11.3 32.1333 11.3 32.9V36.8ZM32.5953 26.05C32.5953 24.6167 33.0286 23.4667 33.8953 22.6C34.7953 21.7 36.0286 21.25 37.5953 21.25C39.262 21.25 40.4953 21.6833 41.2953 22.55C42.1286 23.4167 42.5453 24.5667 42.5453 26C42.5453 27.4 42.1286 28.5333 41.2953 29.4C40.4953 30.2333 39.262 30.65 37.5953 30.65C35.962 30.65 34.712 30.2333 33.8453 29.4C33.012 28.5333 32.5953 27.4167 32.5953 26.05ZM37.5953 58C36.0286 58 34.862 57.5667 34.0953 56.7C33.3286 55.8333 32.9453 54.75 32.9453 53.45V36.35C32.9453 34.9167 33.3286 33.7833 34.0953 32.95C34.862 32.1167 36.0286 31.7 37.5953 31.7C39.162 31.7 40.3286 32.1167 41.0953 32.95C41.8953 33.7833 42.2953 34.8833 42.2953 36.25V53.45C42.2953 54.75 41.8786 55.8333 41.0453 56.7C40.2453 57.5667 39.0953 58 37.5953 58ZM49.9012 58C48.4345 58 47.2512 57.5667 46.3512 56.7C45.4845 55.8 45.0512 54.7 45.0512 53.4V36.85C45.0512 35.45 45.4678 34.2667 46.3012 33.3C47.1345 32.3333 48.3345 31.85 49.9012 31.85C51.4345 31.85 52.6012 32.3333 53.4012 33.3C54.2012 34.2667 54.6012 35.4833 54.6012 36.95V39.45H55.5012C55.5012 37.55 55.8345 36.05 56.5012 34.95C57.2012 33.85 58.0845 33.0667 59.1512 32.6C60.2178 32.1 61.2845 31.85 62.3512 31.85C64.9178 31.85 66.8012 32.7833 68.0012 34.65C69.2012 36.4833 69.8012 39.1 69.8012 42.5V53.4C69.8012 54.7 69.3678 55.8 68.5012 56.7C67.6345 57.5667 66.4678 58 65.0012 58C63.5012 58 62.3012 57.5667 61.4012 56.7C60.5345 55.8 60.1012 54.7 60.1012 53.4V44.55C60.1012 43.35 59.8678 42.4167 59.4012 41.75C58.9678 41.0833 58.3178 40.75 57.4512 40.75C56.4512 40.75 55.7178 41.1167 55.2512 41.85C54.8178 42.5833 54.6012 43.5167 54.6012 44.65V53.4C54.6012 54.7 54.1845 55.8 53.3512 56.7C52.5178 57.5667 51.3678 58 49.9012 58Z" fill="#FBFAA0"/>
<path d="M85.3449 58.3C82.6783 58.3 80.3616 57.5333 78.3949 56C76.4283 54.4333 74.9116 52.3 73.8449 49.6C72.7783 46.8667 72.2449 43.7833 72.2449 40.35C72.2449 37.15 72.7116 34.35 73.6449 31.95C74.6116 29.5167 75.9116 27.5 77.5449 25.9C79.2116 24.2667 81.1283 23.05 83.2949 22.25C85.4949 21.4167 87.8116 21 90.2449 21C94.7116 21 98.0116 21.6333 100.145 22.9C102.312 24.1333 103.395 25.7333 103.395 27.7C103.395 29.2333 102.995 30.5833 102.195 31.75C101.428 32.9167 100.262 33.5 98.6949 33.5C97.6283 33.5 96.6116 33.4 95.6449 33.2C94.7116 33 93.7449 32.8167 92.7449 32.65C91.7783 32.45 90.6949 32.35 89.4949 32.35C86.8616 32.35 84.9616 33.1 83.7949 34.6C82.6616 36.1 82.0949 37.9833 82.0949 40.25C82.0949 42.0833 82.4616 43.5833 83.1949 44.75C83.9616 45.9167 84.9616 46.7833 86.1949 47.35C87.4616 47.8833 88.8616 48.15 90.3949 48.15C91.6616 48.15 92.8449 47.8667 93.9449 47.3C95.0449 46.7333 95.7449 45.6833 96.0449 44.15H93.5949C92.4283 44.15 91.5283 43.8 90.8949 43.1C90.2616 42.3667 89.9449 41.4333 89.9449 40.3C89.9449 39.1667 90.2616 38.25 90.8949 37.55C91.5283 36.85 92.4283 36.5 93.5949 36.5H99.5949C101.762 36.5 103.278 37.0833 104.145 38.25C105.045 39.3833 105.495 41.0833 105.495 43.35V52.7C105.495 54.4333 105.028 55.75 104.095 56.65C103.162 57.55 101.928 58 100.395 58C98.7616 58 97.4783 57.55 96.5449 56.65C95.6116 55.75 95.1449 54.4333 95.1449 52.7V49.6H94.2449C94.2449 52.6333 93.4783 54.85 91.9449 56.25C90.4116 57.6167 88.3616 58.3 85.7949 58.3H85.3449ZM112.696 58C111.13 58 109.913 57.55 109.046 56.65C108.18 55.75 107.746 54.6167 107.746 53.25V36.85C107.746 35.4167 108.18 34.2333 109.046 33.3C109.913 32.3333 111.13 31.85 112.696 31.85C114.263 31.85 115.463 32.3333 116.296 33.3C117.13 34.2333 117.546 35.3833 117.546 36.75V37.8H118.496C118.63 36.0333 119.296 34.5833 120.496 33.45C121.696 32.3167 123.113 31.75 124.746 31.75C126.38 31.75 127.663 32.25 128.596 33.25C129.563 34.25 130.046 35.5833 130.046 37.25C130.046 38.8167 129.596 40.1167 128.696 41.15C127.796 42.1833 126.646 42.7 125.246 42.7C124.08 42.7 123.096 42.4333 122.296 41.9C121.53 41.3333 120.963 40.6833 120.596 39.95C119.53 39.8167 118.746 39.9333 118.246 40.3C117.78 40.6333 117.546 41.3167 117.546 42.35V53.25C117.546 54.6167 117.13 55.75 116.296 56.65C115.463 57.55 114.263 58 112.696 58ZM143.491 58.1C139.591 58.1 136.474 56.95 134.141 54.65C131.841 52.3167 130.691 49.0333 130.691 44.8C130.691 42.2 131.224 39.9167 132.291 37.95C133.358 35.9833 134.841 34.45 136.741 33.35C138.674 32.2167 140.924 31.65 143.491 31.65C146.358 31.65 148.741 32.2167 150.641 33.35C152.541 34.45 153.958 35.9833 154.891 37.95C155.858 39.9167 156.341 42.2 156.341 44.8C156.341 49.0333 155.274 52.3167 153.141 54.65C151.041 56.95 147.824 58.1 143.491 58.1ZM136.641 43.95C136.641 44.9833 137.158 45.7167 138.191 46.15C139.224 46.55 140.991 46.75 143.491 46.75C145.991 46.75 147.758 46.55 148.791 46.15C149.824 45.7167 150.341 44.9833 150.341 43.95C150.341 42.95 149.824 42.25 148.791 41.85C147.758 41.45 145.991 41.25 143.491 41.25C140.991 41.25 139.224 41.45 138.191 41.85C137.158 42.25 136.641 42.95 136.641 43.95ZM168.564 58C166.631 58 165.047 57.3667 163.814 56.1C162.614 54.8333 161.514 52.75 160.514 49.85L156.714 38.55C156.281 37.2833 156.264 36 156.664 34.7C157.064 33.4 157.981 32.5167 159.414 32.05C160.747 31.5833 161.964 31.6167 163.064 32.15C164.164 32.6833 164.931 33.6 165.364 34.9L169.464 47.15C169.931 48.5833 170.414 49.55 170.914 50.05C171.414 50.5167 172.081 50.6167 172.914 50.35C173.614 50.1167 174.047 49.6167 174.214 48.85C174.414 48.05 174.181 46.6833 173.514 44.75L171.464 38.55C171.031 37.25 171.014 35.9667 171.414 34.7C171.847 33.4 172.781 32.5167 174.214 32.05C175.547 31.5833 176.764 31.6167 177.864 32.15C178.964 32.6833 179.731 33.6 180.164 34.9L184.364 47.7C184.631 48.4667 185.047 49.1667 185.614 49.8C186.181 50.4333 186.914 50.6167 187.814 50.35C188.514 50.1167 188.964 49.65 189.164 48.95C189.397 48.25 189.364 47.4333 189.064 46.5C188.664 45.2333 188.214 44.2333 187.714 43.5C187.247 42.7667 186.781 42.1333 186.314 41.6C185.881 41.0667 185.514 40.5 185.214 39.9C184.947 39.3 184.781 38.4833 184.714 37.45C184.647 36.3833 184.864 35.45 185.364 34.65C185.897 33.8167 186.597 33.1667 187.464 32.7C188.364 32.2333 189.347 32 190.414 32C192.047 32 193.364 32.55 194.364 33.65C195.397 34.7167 195.914 35.9833 195.914 37.45C195.914 37.9833 195.831 38.6833 195.664 39.55C195.497 40.4167 195.281 41.2167 195.014 41.95L192.914 47.4C192.481 48.6 191.981 49.8333 191.414 51.1C190.881 52.3333 190.247 53.4667 189.514 54.5C188.814 55.5333 187.997 56.3833 187.064 57.05C186.131 57.6833 185.047 58 183.814 58C181.681 58 179.964 57.45 178.664 56.35C177.397 55.25 176.397 53.4333 175.664 50.9H175.164C174.731 52.9667 174.014 54.6667 173.014 56C172.014 57.3333 170.531 58 168.564 58Z" fill="#FCF7E2"/>
</svg>
