<svg width="252" height="92" viewBox="0 0 252 92" fill="none" xmlns="http://www.w3.org/2000/svg">
<path d="M0 26C0 11.6406 11.6406 0 26 0H215C229.359 0 241 11.6406 241 26V46V57.5V63.25V69V69C241 81.7025 230.703 92 218 92H26C11.6406 92 0 80.3594 0 66V26Z" fill="#0FA564"/>
<path d="M248 81.714C248 81.714 244.346 82.011 242 82.0001C239.862 81.9902 236.531 81.7138 236.531 81.7138L241 70.5C241 70.5 241.002 73.0065 241.5 74.5C241.998 75.9934 243.5 78 243.5 78C243.5 78 245.039 79.2009 246 80C246.791 80.6573 248 81.714 248 81.714Z" fill="#0FA564"/>
</svg>
